<svg width="1200" height="600" viewBox="0 0 1200 600" fill="none" xmlns="http://www.w3.org/2000/svg">
<g clip-path="url(#clip0_681_453)">
<path d="M0 0H1200V300L186.667 593.333L0 0Z" fill="#0038A8"/>
<path d="M186.667 300H1200V600H0L186.667 300Z" fill="#CE1126"/>
<path d="M519.613 300L0 600V0L519.613 300Z" fill="white"/>
<path d="M186.667 360C219.804 360 246.667 333.137 246.667 300C246.667 266.863 219.804 240 186.667 240C153.53 240 126.667 266.863 126.667 300C126.667 333.137 153.53 360 186.667 360Z" fill="#FCD116"/>
<path d="M186.667 300L165.573 193.94L171.873 187.633L186.667 300ZM186.667 300L178.873 181.126L186.667 173.333L194.46 181.126L186.667 300ZM186.667 300L201.46 187.633L207.76 193.94L186.667 300Z" fill="#FCD116"/>
<path d="M186.667 299.999L207.76 406.059L201.46 412.366L186.667 299.999ZM186.667 299.999L194.46 418.873L186.667 426.666L178.873 418.873L186.667 299.999ZM186.667 299.999L171.873 412.366L165.573 406.059L186.667 299.999Z" fill="#FCD116"/>
<path d="M186.667 300L292.727 278.906L299.033 285.206L186.667 300ZM186.667 300L305.54 292.206L313.333 300L305.54 307.793L186.667 300ZM186.667 300L299.033 314.793L292.727 321.093L186.667 300Z" fill="#FCD116"/>
<path d="M186.667 299.999L80.6065 321.093L74.2999 314.793L186.667 299.999ZM186.667 299.999L67.7932 307.793L59.9999 299.999L67.7932 292.206L186.667 299.999ZM186.667 299.999L74.2999 285.206L80.6065 278.906L186.667 299.999Z" fill="#FCD116"/>
<path d="M186.667 300L246.747 210.089L255.662 210.084L186.667 300ZM186.667 300L265.212 210.433L276.234 210.433L276.234 221.454L186.667 300ZM186.667 300L276.582 231.005L276.578 239.919L186.667 300Z" fill="#FCD116"/>
<path d="M186.667 299.999L126.586 389.91L117.672 389.915L186.667 299.999ZM186.667 299.999L108.121 389.566L97.0999 389.566L97.0999 378.545L186.667 299.999ZM186.667 299.999L96.7511 368.994L96.7558 360.08L186.667 299.999Z" fill="#FCD116"/>
<path d="M186.667 300L276.578 360.08L276.583 368.995L186.667 300ZM186.667 300L276.234 378.545L276.234 389.567L265.212 389.567L186.667 300ZM186.667 300L255.662 389.915L246.747 389.911L186.667 300Z" fill="#FCD116"/>
<path d="M186.667 300L96.7558 239.92L96.7511 231.005L186.667 300ZM186.667 300L97.0999 221.455L97.0999 210.433L108.121 210.433L186.667 300ZM186.667 300L117.672 210.085L126.586 210.089L186.667 300Z" fill="#FCD116"/>
<path d="M459.613 300L437.067 307.84L436.58 331.7L422.16 312.68L399.313 319.593L412.947 300L399.313 280.406L422.16 287.32L436.58 268.3L437.067 292.16L459.613 300Z" fill="#FCD116"/>
<path d="M30.0033 548.035L34.487 524.589L14.067 512.238L37.7488 509.26L43.185 486.017L53.3366 507.621L77.1216 505.611L59.7112 521.94L68.973 543.938L48.0663 532.429L30.0033 548.035Z" fill="#FCD116"/>
<path d="M30.0033 51.9648L48.0663 67.5708L68.973 56.0623L59.7112 78.0603L77.1216 94.3895L53.3366 92.3793L43.185 113.983L37.7488 90.7403L14.067 87.7623L34.487 75.4108L30.0033 51.9648Z" fill="#FCD116"/>
</g>
<defs>
<clipPath id="clip0_681_453">
<rect width="1200" height="600" fill="white"/>
</clipPath>
</defs>
</svg>
