<svg width="1200" height="600" viewBox="0 0 1200 600" fill="none" xmlns="http://www.w3.org/2000/svg">
<g clip-path="url(#clip0_828_944)">
<path d="M0 600H1200V0H0V600Z" fill="#005430"/>
<path d="M900 238.324C899.916 227.784 894.464 199.393 893.08 189.869C891.699 180.344 890.307 171.704 890.643 169.68C890.972 167.728 894.979 172.395 897.096 172.772C898.192 172.608 897.703 169.66 895.712 167.142C894.365 165.433 889.771 159.042 886.984 155.296C885.673 153.523 885.38 152.496 884.749 152.277C884.121 152.06 879.048 159.735 879.603 160.587C880.987 162.147 881.936 162.891 882.152 165.646C882.371 168.401 884.271 188.073 886.692 202.984C888.515 214.233 892.513 238.468 892.656 253.536C892.696 258.451 891.969 263.136 891.096 265.094C888.857 268.168 885.359 270.941 872.328 276.659C857.68 283.089 838.137 288.44 829.737 292.021C824.515 294.255 826.245 294.553 830.793 293.576C835.328 292.598 858.783 289.466 870.177 285.855C880.873 282.456 887.817 276.771 893.087 268.477C899.595 258.223 900.091 249.522 900 238.324ZM854.649 158.261C855.783 157.932 865.156 157.57 867.681 157.96C866.023 159.738 854.781 163.673 854.735 164.395C855.041 164.881 862.499 163.495 864.851 162.725C866.388 162.032 867.415 160.958 868.553 160.067C871.241 157.747 874.429 153.445 873.627 152.905C872.323 152.034 859.544 152.576 857.86 152.755C856.732 152.877 853.868 156.727 853.343 157.715C852.828 158.702 853.517 158.59 854.649 158.261Z" fill="white"/>
<path d="M873.8 220.733C876.033 215.07 875.956 209.037 873.577 203.408C870.845 196.882 864.06 192.904 859.167 190.865L858.293 197.148C858.293 197.148 865.156 199.706 869.848 206.146C872.821 210.231 874.059 216.007 871.711 222.446C871.32 224.045 872.844 223.164 873.8 220.732M801.2 252.24C803.21 247.141 803.141 241.709 801.003 236.64C798.541 230.763 792.431 227.18 788.023 225.35L787.235 231.006C787.235 231.006 793.413 233.31 797.639 239.104C800.319 242.779 801.431 247.988 799.323 253.784C798.972 255.218 800.341 254.428 801.2 252.24ZM549.149 166.691C551.976 170.568 553.149 176.059 550.925 182.174C550.552 183.691 551.992 182.858 552.908 180.549C555.024 175.169 554.948 169.437 552.689 164.09C550.092 157.889 543.647 154.113 538.996 152.18L538.176 158.147C538.176 158.147 544.695 160.575 549.149 166.691ZM379 168.697C381.373 172.871 381.533 178.506 377.7 184.442C376.955 185.933 378.769 185.227 380.293 182.996C383.404 178.435 385.151 172.726 383.573 166.421C381.955 159.938 375.461 155.519 370.6 153.126L368.395 159.049C368.395 159.049 375.256 162.119 379 168.697Z" fill="white"/>
<path d="M426.035 261.983C429.052 257.783 430.308 254.958 431.648 249.983C432.821 245.608 432.897 240.553 432.475 235.407C441.501 232.647 452.261 228.066 455.876 227.729C453.404 234.096 459.305 240.966 471.227 240.069C472.139 247.269 472.92 253.593 473.396 257.343C474.367 265.032 474.221 274.721 474.192 276.405C474.152 278.096 475.784 277.777 477.46 274.009C479.695 268.964 480.385 255.791 479.575 247.079C479.381 244.901 479.052 241.961 478.655 238.611C486.383 235.929 487.668 230.753 490.556 228.547C493.164 235.397 507.516 236.327 511.947 234.86C517.44 233.04 519.24 229.765 520.653 222.165C522.071 214.568 517.944 211.509 516.468 210.681C516.321 211.601 512.728 220.529 512.728 220.529C512.728 220.529 516.136 223.229 516.308 224.556C513.532 226.44 507.677 226.556 502.761 225.356C497.841 224.156 496.335 221.948 496.627 220.466C496.911 218.98 498.763 217.627 498.825 215.816C498.879 214.006 497.723 214.53 495.753 216.133C493.785 217.739 492.513 219.183 489.789 222.629C487.563 225.447 483.947 228.886 477.569 229.869C476.517 221.593 475.316 212.788 474.513 207.257C474.093 204.337 469.897 179.104 469.597 176.281C469.337 173.821 468.852 170.922 468.932 169.56C469.012 168.476 469.919 168.906 471.321 170.04C472.727 171.173 475.185 173.148 475.608 172.994C477.04 172.467 475.576 169.187 473.701 166.25C471.832 163.305 465.448 151.686 464.108 151.207C463.417 150.964 459.108 158.116 458.853 159.524C459.52 160.404 461.267 161.79 461.329 165.731C461.351 166.83 462.293 177.192 463.6 186.991C464.744 195.643 466.259 203.854 466.405 204.808C467.445 211.413 468.709 220.722 469.912 229.874C462.991 228.886 461.149 225.463 461.303 223.51C461.479 221.307 462.804 218.82 462.169 218.258C460.836 217.658 452.903 220.983 441.841 224.556C438.44 225.658 434.999 226.692 431.524 227.656C430.56 221.418 429.289 215.487 428.777 210.952L428.716 210.448C435.991 210.096 441.947 207.341 444.657 204.718C448.043 201.438 450.409 194.688 450.639 189.518C450.869 184.341 445.3 174.878 443.975 171.869C442.637 168.859 441.948 166.771 441.831 165.731C441.711 164.69 444.84 166.936 446.808 167.377C448.141 167.577 447.681 165.411 446.052 163.925C444.435 162.443 435.684 152.484 435.071 153.182C434.695 153.592 431.188 160.919 430.959 162.041C432.339 162.725 433.953 164.609 434.065 166.414C434.183 168.22 436.111 176.159 438.248 180.571C440.392 184.982 444.956 193.445 445.245 195.773C441.984 197.497 434.559 200.417 427.215 200.243C425.959 192.523 424.365 183.559 423.515 177.21C423.187 174.756 423.164 172.138 423.216 170.77C423.256 169.686 424.296 169.836 425.728 170.95C427.168 172.064 429.373 173.685 429.825 173.568C430.812 173.323 429.957 170.864 428.004 167.944C426.051 165.024 418.284 152.674 416.924 152.213C416.233 151.977 412.756 158.913 412.537 160.329C413.231 161.205 415.009 162.56 415.184 166.5C415.324 169.638 417.361 185.015 419.107 198.558C411.84 195.74 409.36 191.711 408.461 184.947C407.833 180.231 407.771 171.545 405.528 164.279C404.265 160.172 401.603 155.999 398.448 153.783C397.695 155.148 394.335 163.527 394.335 163.527C395.431 165.933 398.837 174.034 398.721 181.054C398.608 188.074 397.871 194.937 387.381 199.664C376.9 204.395 361.177 202.514 357.295 195.134C353.413 187.75 362.043 169.235 361.929 164.864C361.813 160.494 360.772 159.891 358.336 160.613C355.904 161.334 350.925 165.548 346.639 172.403C342.351 179.263 340.444 187.76 338.008 193.536C335.58 199.313 331.691 205.166 325.672 204.841C319.653 204.522 316.413 200.391 314.561 194.418C312.707 188.438 313.841 180.565 314.347 178.548C315.603 173.492 312.693 174.528 310.909 182.465C309.807 187.36 308.711 195.177 312.593 203.36C316.468 211.542 323.075 214.593 328.864 213.548C334.656 212.507 339.747 202.318 341.544 197.743C343.337 193.174 351.36 172.883 355.904 171.884C356.539 174.171 352.372 181.543 351.039 190.166C349.709 198.789 352.811 210.372 367.404 212.376C381.997 214.381 391.899 207.282 395.489 202.354C399.083 197.419 400.759 192.244 401.164 189.639C401.631 196.254 407.651 206.583 419.341 209.529L420.545 209.789C421.265 215.204 422.439 222.272 423.515 229.694C421.249 230.22 418.962 230.692 416.656 231.107C416.364 230.396 416.043 229.699 415.652 229.059C412.084 223.302 406.179 217.997 397.995 218.364C389.635 218.736 380.519 227.104 380.917 233.214C381.18 237.324 384.197 240.698 395.168 241.561C400.179 241.959 405.499 241.541 410.995 240.641C411.769 242.341 412.259 244.031 412.315 245.57C408.837 248.619 380.069 264.892 358.529 266.457C336.989 268.02 330.42 259.551 330.204 251.05C330.044 244.582 335.229 238.127 338.873 233.66C344.089 230.798 348.369 227.22 351.072 224.46C351.805 224.8 352.504 225.113 353.168 225.404C355.743 226.526 356.769 228.203 356.769 228.203C357.244 227.656 359.457 224.667 358.592 223.206C358.193 222.846 356.247 221.948 353.907 220.881C356.364 216.288 356.331 211.701 353.147 210.681C349.587 209.544 344.936 212.704 342.932 214.631C342.01 215.516 341.502 216.603 341.485 217.726C341.471 218.954 342.241 220.063 344.148 221.051C346.047 222.024 347.811 222.905 349.468 223.7C344.761 227.407 333.637 232.84 326.829 236.03C326.577 235.562 325.58 236.056 324.24 237.24L322.396 238.094C316.965 240.586 303.943 246.059 301.383 247.398C298.817 248.741 300.425 248.498 301.383 248.198C303.189 247.467 305.563 246.58 308.229 245.603C312.005 244.218 316.399 242.65 320.693 241.077C319.282 242.869 318.029 244.729 316.943 246.644C311.819 255.717 303.536 274.523 321.453 285.838C338.596 296.669 368.061 292.548 392.497 281.292C416.937 270.033 422.215 266.075 426.035 261.982M346.361 217.25C345.513 216.781 345.396 216.156 346.087 215.72C346.967 215.158 348.092 214.626 349.371 214.447C352.08 214.069 353.161 216.404 352.073 220.041C350.013 219.096 347.895 218.103 346.361 217.25ZM402.413 232.589C389.971 232.632 389.397 230.938 389.631 229.854C389.861 228.775 393.736 225.814 398.652 227.767C400.729 228.595 403.071 230.327 405.236 232.503C404.28 232.556 403.337 232.583 402.413 232.589ZM364.304 281.664C340.795 286.476 317.864 279.021 316.476 264.259C315.413 252.987 320.895 244.494 324.429 239.707C327.801 238.457 330.985 237.241 333.619 236.152C327.465 243.585 323.864 253.539 326.271 261.972C328.995 271.525 340.076 277.316 358.836 275.447C377.411 273.601 402.527 260.352 409.648 255.355C411.817 253.552 413.248 251.926 415.199 248.614C416.003 247.254 417.132 245.459 417.551 243.43C417.825 242.108 417.971 240.695 418.004 239.257C420.214 238.758 422.408 238.216 424.581 237.633C425.331 243.681 425.881 249.643 425.915 254.798C414.341 264.978 387.812 276.85 364.304 281.664ZM775.5 242.955C774.704 233.079 772.783 215.202 771.709 206.134C770.76 198.063 768.893 187.001 767.528 177.264C767.251 175.216 767.136 173.158 767.184 171.1C767.224 170.022 768.664 170.437 770.103 171.546C771.541 172.655 773.791 174.048 774.215 173.878C775.62 173.331 773.937 170.627 771.961 167.717C769.985 164.802 762.152 152.745 760.789 152.287C760.096 152.054 756.425 159.277 756.213 160.692C756.915 161.563 758.707 162.913 758.901 166.853C759.099 170.796 761.755 188.923 763.671 203.583C765 213.774 766.717 230.402 767.965 242.94C767.904 242.96 769.145 254.86 769.28 256.197C770.048 263.896 769.649 273.582 769.573 275.264C769.488 276.953 771.136 276.659 772.904 272.911C774.704 269.084 775.731 260.541 775.869 252.826L775.5 242.955ZM708.751 208.38C706.34 208.932 702.556 207.02 702.844 203.011C703.108 199.39 705.175 195.999 705.971 193.859C707.067 190.906 707.073 188.059 706.147 189.673C704.057 193.279 700.168 200.251 699.364 204.982C698.557 209.712 700.603 212.762 703.381 213.802C706.844 215.106 709.337 213.037 711.025 209.988C712.647 207.068 712.34 203.66 711.215 204.462C710.273 205.301 709.921 208.109 708.751 208.38ZM674.1 222.952C675.379 220.405 675.677 217.908 674.695 219.278C672.479 222.348 668.327 228.278 667.109 232.398C665.897 236.518 667.369 239.307 669.707 240.363C672.621 241.685 675.02 239.991 676.836 237.395C678.569 234.911 678.657 231.895 677.592 232.548C676.672 233.237 676.061 235.685 675.009 235.865C672.823 236.227 669.703 234.353 670.379 230.838C670.992 227.673 673.172 224.794 674.1 222.952ZM573.2 276.697C575.336 274.097 576.4 271.4 574.916 272.762C571.608 275.806 565.344 281.714 562.817 286.047C560.297 290.38 561.1 293.634 563.347 295.116C566.147 296.964 569.271 295.445 571.999 292.864C574.617 290.39 575.596 287.108 574.225 287.668C573.025 288.298 571.652 290.889 570.443 290.938C567.956 291.028 565.085 288.544 566.845 284.801C568.437 281.423 571.655 278.581 573.2 276.698M750.1 200.798C747.649 201.258 744.027 199.2 744.633 195.206C745.184 191.602 747.525 188.298 748.487 186.196C749.823 183.286 750.052 180.447 748.997 182.017C746.631 185.542 742.189 192.349 741.003 197.044C739.816 201.737 741.609 204.859 744.304 206.007C747.664 207.435 750.308 205.47 752.244 202.487C754.096 199.635 754.067 196.221 752.872 196.981C751.868 197.786 751.295 200.575 750.1 200.798ZM749.351 249.791C752.703 251.22 755.361 249.254 757.289 246.271C759.137 243.42 759.112 240.006 757.925 240.766C756.913 241.566 756.34 244.359 755.145 244.582C752.695 245.04 749.065 242.984 749.679 238.991C750.231 235.387 752.568 232.08 753.532 229.981C754.865 227.071 755.095 224.227 754.043 225.801C751.669 229.327 747.236 236.134 746.048 240.824C744.861 245.522 746.655 248.644 749.351 249.791ZM792.2 187.208C793.813 183.688 794.092 180.251 792.813 182.153C789.943 186.417 784.573 194.653 783.136 200.338C781.704 206.018 783.877 209.794 787.139 211.184C791.196 212.911 794.405 210.534 796.747 206.927C798.979 203.476 798.947 199.34 797.507 200.265C796.291 201.235 795.593 204.608 794.147 204.879C791.188 205.436 786.795 202.946 787.536 198.115C788.204 193.754 791.035 189.755 792.2 187.208Z" fill="white"/>
<path d="M449.76 248.093C452.4 243.803 453.357 239.508 451.413 241.794C447.065 246.912 438.873 256.822 436.076 263.842C433.275 270.864 435.349 275.797 439.201 277.82C444.008 280.333 448.46 277.608 452.028 273.275C455.443 269.119 456.121 263.915 454.153 264.955C452.455 266.07 450.987 270.259 449.124 270.479C445.297 270.929 440.213 267.43 441.988 261.416C443.595 255.989 447.855 251.197 449.76 248.093ZM819.5 290.625C821.523 289.382 839.119 282.273 842.359 280.83C842.359 280.83 845.671 276.778 844.679 276.347C843.68 275.917 837.256 280.297 833.261 280.419C829.261 280.541 823.788 278.338 823.612 276.532C824.132 275.17 828.941 273.123 830.679 273.04C832.417 272.964 832.136 275.932 832.717 276.294C833.297 276.651 835.611 274.245 835.901 273.243C836.187 272.243 835.949 268.053 832.768 268.653C827.732 269.609 820.136 276.613 819.269 278.816C818.397 281.025 823.091 282.946 826.516 283.993C826.223 284.073 823.667 284.995 822.049 286.196C822.049 286.196 820.311 287.657 819.5 290.625ZM759.5 299.43C761.523 298.187 779.119 291.083 782.359 289.635C782.359 289.635 785.679 285.583 784.679 285.152C783.68 284.722 777.256 289.102 773.261 289.224C769.261 289.346 763.788 287.143 763.612 285.337C764.132 283.975 768.941 281.928 770.679 281.85C772.417 281.769 772.136 284.734 772.717 285.094C773.297 285.456 775.611 283.05 775.901 282.048C776.187 281.048 775.941 276.858 772.768 277.458C767.732 278.418 760.136 285.418 759.269 287.626C758.397 289.83 763.091 291.752 766.509 292.798C766.224 292.878 763.667 293.798 762.049 295.001C762.049 295.001 760.311 296.462 759.5 299.43ZM624.351 172.02C625.928 173.395 636.263 183.244 644.36 189.435C652.453 195.632 666.327 205.661 676.52 212.534C678.605 213.943 680.67 215.368 682.715 216.811C685.285 231.615 688.259 250.454 689.507 258.244C690.737 265.914 690.92 275.601 690.947 277.287C690.968 278.977 692.589 278.632 694.131 274.841C696.197 269.753 696.435 256.58 695.34 247.878C694.66 242.505 693.057 232.438 691.505 223.157C697.524 227.617 703.209 232.041 707.041 235.353C714.085 241.433 720.013 246.02 723.625 252.556C726.181 257.18 725.923 260.86 726.971 261.586C727.877 262.214 728.877 256.681 727.759 251.315C725.948 242.601 723.465 238.906 708.549 226.465C702.859 221.708 696.161 216.737 689.613 212.09C689.36 210.657 689.131 209.33 688.923 208.152C688.404 205.242 683.349 180.086 682.952 177.267C682.612 174.813 682.016 171.924 682.064 170.559C682.1 169.472 683.021 169.895 684.467 171.005C685.907 172.111 688.427 174.048 688.853 173.879C690.263 173.332 688.693 170.083 686.717 167.168C684.748 164.258 677.967 152.746 676.604 152.29C675.913 152.057 671.849 159.277 671.641 160.69C672.345 161.561 674.135 162.919 674.329 166.854C674.383 167.953 675.684 178.3 677.316 188.07C678.763 196.703 680.552 204.89 680.739 205.838L680.745 205.911C673.993 201.292 668.044 197.369 664.436 194.905C655.999 189.155 637.367 175.507 636.617 173.463C636.449 172.818 637.896 173.215 640.555 173.534C643.224 173.856 645.597 174.537 645.171 173.554C644.977 173.091 643.955 171.947 641.409 170.766C638.86 169.584 632.329 166.52 627.472 164.352C622.605 162.187 620.193 160.371 619.189 160.89C618.693 161.146 619.136 168.563 619.427 169.488C620.643 169.566 622.78 170.64 624.349 172.02" fill="white"/>
<path d="M637.649 158.681C639.648 158.352 649.113 158.531 652.551 159.074C651.111 159.824 641.427 163.493 639.512 164.367C637.609 165.243 637.128 165.749 638.085 165.663C640.86 165.086 647.116 164.367 650.115 163.194C652.941 162.201 657.759 157.359 659.632 155.554C661.495 153.748 661.495 152.847 661.019 152.363C659.107 151.583 646.769 150.8 640.82 151.907C639.173 152.745 635.952 157.21 635.477 158.139C635.003 159.074 635.652 159.01 637.651 158.681M690.3 158.1C691.913 157.834 699.544 157.978 702.308 158.414C701.151 159.019 693.349 161.977 691.808 162.686C690.264 163.388 689.88 163.798 690.651 163.727C692.889 163.267 697.933 162.687 700.347 161.737C702.623 160.937 706.504 157.034 708.013 155.583C709.513 154.124 709.513 153.4 709.131 153.013C707.597 152.377 697.651 151.749 692.856 152.643C691.527 153.316 688.937 156.915 688.555 157.664C688.164 158.414 688.693 158.366 690.3 158.1ZM733.1 157.688C734.707 157.422 742.336 157.566 745.1 158.002C743.951 158.607 736.145 161.565 734.601 162.269C733.064 162.975 732.68 163.385 733.451 163.315C735.689 162.854 741.124 162.269 743.537 161.324C745.817 160.524 748.516 156.621 750.024 155.165C751.532 153.712 751.532 152.982 751.141 152.6C749.608 151.964 740.444 151.336 735.656 152.225C734.327 152.904 731.731 156.502 731.347 157.252C730.963 158.002 731.485 157.953 733.1 157.687M706.4 173.321C703.867 176.315 707.043 178.731 708.2 181.149C706.637 182.22 704.235 181.243 703.431 180.303C701.721 178.376 702.295 174.448 700.283 173.843C699.768 174.904 699.432 176.082 699.432 176.082C699.432 176.082 700.963 178.768 700.579 180.546C700.333 181.62 699.071 182.874 697.401 182.899C692.953 182.979 695.144 178.042 693.428 175.243C693.077 175.927 692.825 176.662 692.416 177.303C692.731 178.032 692.901 179.055 692.953 179.645C693.055 180.817 692.931 182.081 693.197 183.081C693.567 184.497 694.615 185.436 696.215 185.527C699.537 185.725 701.053 183.707 701.553 182.05C702.127 183.74 706.52 185.6 708.683 183.527C711.545 180.792 709.256 178.449 707.788 175.877C706.729 173.975 707.036 172.727 706.4 173.321ZM581.549 165.382C581.78 166.613 582.624 167.454 584 167.581C586.841 167.851 588.28 166.157 588.817 164.749C589.193 166.221 592.868 167.953 594.865 166.236C597.505 163.964 595.676 161.878 594.573 159.616C593.784 157.94 594.124 156.876 593.54 157.37C591.167 159.867 593.755 162.052 594.599 164.172C593.181 165.043 591.177 164.129 590.541 163.301C589.191 161.586 589.928 158.221 588.24 157.636C587.729 158.537 587.368 159.538 587.368 159.538C587.368 159.538 588.511 161.9 588.065 163.418C587.792 164.337 586.625 165.378 585.18 165.35C581.349 165.286 583.548 161.098 582.24 158.639C581.9 159.214 581.633 159.844 581.236 160.376C581.467 161.019 581.549 161.9 581.549 162.415C581.579 163.427 581.389 164.506 581.549 165.382ZM672.2 281.362C672.627 280.853 673.569 279.456 673.333 278.501C673.097 277.546 671.535 273.563 668.507 272.565C665.499 271.567 663.22 273.659 661.777 276.569L660.777 276.551C660.539 276.981 660.24 277.624 660.001 278.786C659.665 280.465 659.031 281.547 655.192 284.161C651.964 286.349 641.504 291.604 634.725 294.073C627.94 296.547 623.057 298.682 621.257 299.329C619.464 299.967 619.985 300.205 621.779 299.803C623.568 299.404 632.575 297.227 636.165 296.118C639.748 295.001 644.129 293.166 649.411 290.596C655.284 287.739 658.793 284.883 659.973 282.35C660.813 280.545 661.028 279.823 661.028 279.823C661.028 279.823 663.235 280.8 666.977 281.441C670.707 282.084 671.765 281.877 672.2 281.363M667.139 275.703C668.8 276.176 669.812 277.533 670.112 278.357C668.205 278.389 664.695 277.663 663.201 277.157C664.1 275.852 665.663 275.287 667.139 275.703Z" fill="white"/>
<path d="M632.451 284.164C627.243 283.622 614.12 282.125 610.909 276.412C613.605 273.464 626.019 269.732 641.569 266.239C657.12 262.755 673.369 258.232 677.736 256.049C678.693 255.806 680.544 255.879 680.544 255.879C681.327 254.19 685.231 248.259 685.475 247.019C681.128 247.203 654.341 248.679 642.443 249.159C630.536 249.639 607.608 249.523 599.968 249.459C604.653 246.932 615.775 241.999 631.668 237.79C633.728 237.243 635.635 236.75 637.413 236.304C638.735 238.071 639.717 239.819 639.923 241.341C640.933 240.561 641.693 237.975 641.437 235.321C650.704 233.103 655.477 232.368 657.536 231.951C658.836 230.687 661.141 225.576 661.484 221.861C660.1 219.97 655.764 217.614 651.908 215.591C646.595 212.808 640.864 210.381 635.145 211.443C627.327 212.881 625.759 223.654 627.581 225.939C628.163 226.66 629.539 227.939 631.164 229.517C625.452 231.201 619.477 233.181 614.212 235.263C602.481 239.897 589.385 244.967 585.564 249.842L584.469 250.242C584.163 250.703 581.744 258.247 581.393 259.06C583.833 258.997 602.049 259.022 614.737 258.726C627.417 258.422 638.505 258.12 642.848 258.12C636.416 259.263 619.561 263.96 614.715 266.723C609.869 269.493 606.823 273.705 606.743 280.925C602.225 279.598 593.829 276.567 586.675 269.309C578.699 261.22 580.349 252.901 577.157 241.984C572.519 226.141 562.615 212.764 556.447 208.673C554.368 214.264 554.101 218.478 554.101 218.478C554.101 218.478 561.829 231.292 565.741 239.472C569.652 247.654 572.995 255.715 572.829 257.52C569.608 262.818 550.541 273.915 534.651 280.41C519.581 286.57 506.307 287.233 501.603 282.847C500.679 281.991 500.051 280.978 499.696 279.831C501.741 279.114 503.793 278.392 505.897 277.671C519.447 273.041 543.511 263.297 549.149 258.184C555.233 251.987 555.149 243.263 551.581 238.269C548.028 233.277 542.455 227.499 542.021 225.455C541.681 224.49 545.64 225.847 547.977 225.939C549.109 225.875 548.543 224.733 546.115 222.927C544.172 221.489 536.659 216.822 533.788 215.001C533.068 214.538 532.532 214.725 532.387 215.214C531.827 217.078 530.684 221.069 530.243 223.039L530.549 224.032C531.375 224.399 532.324 224.812 532.784 225.842C533.435 227.303 535.709 231.381 539.437 236.527C543.175 241.67 548.572 247.347 549.101 250.214C544.712 254.413 522.576 263.354 501.015 270.724C502.348 267.624 504.451 264.12 507.241 260.227C508.033 259.569 508.757 258.757 509.428 257.839C511.58 254.892 511.788 251.288 510.484 252.05C509.367 252.858 508.564 255.783 507.284 255.98C504.667 256.383 500.992 254.091 501.916 249.9C502.753 246.12 505.449 242.706 506.613 240.52C508.227 237.496 508.669 234.508 507.445 236.134C504.696 239.765 499.536 246.801 497.951 251.716C496.373 256.624 498.049 259.979 500.813 261.278C501.847 261.772 502.837 261.927 503.779 261.83C501.888 264.53 499.551 267.842 497.845 271.793C489.175 274.703 480.739 277.303 473.755 279.177C448.655 285.917 430.767 289.887 418.255 292.835L417.765 292.999C418.685 290.769 418.561 288.864 417.575 289.436C416.457 290.249 415.657 293.174 414.38 293.366C411.761 293.769 408.087 291.48 409.007 287.286C409.847 283.506 412.543 280.096 413.708 277.909C415.315 274.888 415.76 271.894 414.54 273.523C411.787 277.154 406.629 284.189 405.045 289.102C403.463 294.012 405.139 297.368 407.9 298.669C411.34 300.29 414.273 298.302 416.523 295.228L417.312 293.964C418.093 293.964 419.412 293.827 421.38 293.498C427.113 292.531 441.449 290.971 461.159 289.044C475.753 287.62 485.829 284.614 495.569 281.269C495.521 282.095 495.518 282.922 495.561 283.749C496.092 293.779 504.856 296.611 516.843 294.734C528.405 292.914 544.529 284.961 554.193 279.598C564.269 274.006 570.083 269.01 571.567 267.268C574.253 262.995 574.992 258.275 575.175 256.048C576.055 262.182 576.767 270.671 584.501 277.952C591.623 284.652 606.217 294.002 633.667 294.258C633.757 291.809 632.449 284.164 632.449 284.164M630.636 222.008C634.564 218.701 642.949 220.864 649.243 225.058C646.017 225.625 641.639 226.635 636.807 227.929C633.936 225.333 630.733 222.831 630.635 222.009M476.315 176.663C478.097 176.053 483.549 174.213 489.427 171.646C495.291 169.096 500.803 166.006 503.497 163.952C504.531 163.165 505.452 162.549 506.04 161.817C507.8 162.364 509.013 162.932 509.768 163.155C510.904 163.484 512.42 163.957 513.405 161.531C514.388 159.108 513.085 157.543 511.164 155.674C509.537 154.106 506.96 151.751 504.867 151.166C503.093 150.667 502.248 153.64 502.52 153.566H503.707L503.936 153.65C501.492 154.575 499.601 157.452 499.411 158.462C499.217 159.562 499.495 160.372 503.001 161.048L504.411 161.359C501.485 163.957 496.033 166.644 492.317 168.549C487.048 171.259 479.569 174.644 477.44 175.622C475.311 176.594 475.489 176.902 476.315 176.663ZM507.987 157.573L508.176 156.274C510.641 158.381 512.471 160.888 512.288 161.243C511.156 161.311 509.747 160.526 507.281 159.736C507.584 159.028 507.819 158.305 507.987 157.573ZM500.908 157.576C500.895 157.181 501.843 156.082 503.852 155.481C505.857 154.876 506.745 156.565 506.919 158.621L506.324 159.445L504.516 158.976C502.603 158.556 501.309 158.318 500.908 157.576Z" fill="white"/>
<path d="M607.751 216.326C610.643 214.893 618.593 210.588 623.104 207.766C626.24 205.806 629.925 202.92 632.427 200.478C633.863 201.177 635.319 201.852 636.795 202.504C639.367 203.631 640.4 205.303 640.4 205.303C640.875 204.756 643.088 201.763 642.223 200.306C641.703 199.83 638.541 198.445 635.309 196.961C636.949 194.201 639.205 189.427 635.973 187.756C633.209 186.337 628.545 188.685 626.387 191.731C624.604 194.254 624.373 196.394 627.773 198.146C628.731 198.64 629.648 199.106 630.547 199.549C627.117 202.363 620.8 206.526 616.303 209.359C610.719 212.864 605.439 216.301 604.517 217.121L604.251 217.441C603.032 214.893 603.364 213.321 602.459 214.166C598.547 218.767 603.448 222.496 605.231 226.218C602.82 227.858 599.128 226.352 597.889 224.916C595.252 221.943 596.133 215.906 593.047 214.971C592.251 216.602 591.732 218.418 591.732 218.418C591.732 218.418 594.08 222.553 593.485 225.283C593.116 226.935 591.165 228.867 588.605 228.9C581.755 229.031 585.132 221.43 582.488 217.124C581.952 218.18 581.568 219.309 580.925 220.287C581.411 221.419 581.677 222.989 581.747 223.898C581.923 225.704 581.725 227.641 582.131 229.191C582.696 231.369 584.311 232.817 586.776 232.951C591.885 233.263 594.219 230.148 594.993 227.608C595.873 230.206 602.641 233.063 605.967 229.878C610.376 225.666 606.847 222.06 604.593 218.098L604.328 217.585C604.643 217.668 605.821 217.281 607.751 216.326ZM627.735 192.613C629.428 190.255 632.997 190.055 634.068 191.291C634.917 192.273 634.988 194.191 633.708 196.214C630.561 194.732 627.752 193.281 627.735 192.613Z" fill="white"/>
<path d="M496.215 201.334C490.196 201.014 486.957 196.879 485.105 190.905C483.251 184.931 484.385 177.053 484.889 175.035C485.393 173.019 482.556 174.06 481.453 178.955C480.357 183.845 479.255 191.665 483.137 199.852C487.012 208.029 493.617 211.081 499.407 210.035C505.196 208.995 510.291 198.806 512.087 194.235C513.88 189.662 521.904 171.011 526.447 170.008C527.083 172.295 522.916 178.03 521.583 186.653C520.257 195.276 522.565 206.586 537.159 208.592C551.752 210.6 561.653 203.499 565.244 198.563C568.837 193.635 570.513 188.453 570.919 185.851C571.385 192.468 577.405 202.8 589.095 205.745C600.391 208.592 609.021 205.985 612.833 202.296C616.22 199.019 618.977 192.27 619.215 187.094C619.444 181.923 613.484 172.459 612.151 169.446C610.815 166.44 610.124 164.353 610.007 163.312C609.893 162.272 613.024 164.518 614.993 164.958C616.325 165.158 615.857 162.993 614.236 161.506C612.619 160.025 603.86 150.066 603.247 150.759C602.871 151.174 599.365 158.501 599.135 159.622C600.523 160.306 602.129 162.19 602.251 163.996C602.36 165.801 604.679 173.741 606.823 178.152C608.967 182.563 613.133 191.027 613.425 193.354C609.259 195.557 599.872 198.361 590.959 195.519C582.043 192.668 579.199 188.537 578.216 181.158C577.588 176.443 577.525 167.756 575.283 160.494C574.02 156.388 571.357 152.215 568.195 149.999C567.448 151.359 564.089 159.744 564.089 159.744C565.185 162.15 568.592 170.251 568.483 177.271C568.363 184.286 567.624 191.151 557.136 195.881C546.655 200.612 531.721 198.728 527.839 191.346C523.956 183.966 532.585 167.364 532.473 162.993C532.356 158.623 531.308 158.017 528.88 158.741C526.447 159.463 521.461 163.677 517.181 170.532C512.895 177.392 510.992 184.248 508.552 190.024C506.123 195.8 502.233 201.653 496.215 201.334ZM321.46 175.748C328.867 175.345 335.127 171.133 336.744 170.014C338.365 168.887 339.237 167.208 338.077 167.846C329.509 173.582 318.045 173.744 317.403 172.78C317.695 171.817 320.711 170.252 325.112 168.049C327.785 166.709 330.167 165.453 331.949 163.673L332.435 163.736C335.696 164.273 339.461 165.342 340.612 164.486C342.485 163.101 342.733 160.832 340.703 158.386C338.987 156.309 334.983 154.376 331.507 152.981C328.037 151.593 327.365 153.809 326.92 154.599C326.493 155.336 326.667 155.964 327.401 155.979C326.284 157.122 325.488 158.593 325.196 159.809C325.007 160.594 325.16 161.237 325.587 161.766C325.711 161.916 326.353 162.506 327.569 162.855L329.079 163.207C326.481 165.005 323.491 166.413 321.92 167.125C319.087 168.409 315.727 170.655 314.685 172.977C313.641 175.307 314.045 176.15 321.46 175.747M334.553 159.363L334.837 158.178V157.418C337.185 158.699 340.94 161.125 340.711 162.579C339.224 162.326 336.391 161.877 333.697 161.359C334.041 160.753 334.323 160.089 334.553 159.363ZM327.592 159.733C325.864 158.699 327.548 157.669 329.079 157.005C331.055 156.149 332.212 156.855 333.224 159.102C332.846 159.766 332.364 160.393 331.788 160.971C330.251 160.614 328.085 160.041 327.592 159.733ZM343.68 238.481C341.551 239.866 340.725 244.374 341.16 244.645C341.591 244.916 348.245 246.6 349.285 246.965L349.761 245.607C352.931 247.742 356.444 258.394 357.225 258.424C358.007 258.452 359.14 257.219 359.881 254.39C360.564 251.766 361.247 247.841 361.959 244.645C362.624 241.72 363.657 240.046 366.001 239.712C368.349 239.382 370.088 241.639 370.695 243.174C370.695 243.174 372.341 240.224 372.692 238.39C372.301 237.425 368.649 233.789 365.655 234.992C362.656 236.197 360.779 241.3 360.173 244.491C359.563 247.676 359.096 251.627 358.357 252.261C357.584 249.541 355.104 244.673 352.109 241.938C348.741 238.874 344.805 237.749 343.68 238.481ZM315.295 233.036C318.075 232.464 324.331 231.745 327.325 230.572C330.148 229.58 334.965 224.738 336.835 222.932C338.701 221.126 338.705 220.22 338.231 219.742C336.32 218.956 323.98 218.179 318.027 219.285C316.383 220.118 313.165 224.583 312.691 225.518C312.209 226.447 312.867 226.388 314.86 226.059C316.859 225.725 326.328 225.905 329.753 226.447C328.327 227.202 318.64 230.871 316.727 231.745C314.82 232.615 314.339 233.127 315.295 233.036ZM889.049 258.885C888.765 253.473 885.229 245.165 871.791 232.416C867.152 228.015 860.625 222.286 853.741 216.419C853.552 214.419 853.361 212.59 853.191 211.019C852.288 202.944 849.231 186.469 847.916 176.729C847.596 174.272 847.569 171.659 847.617 170.294C847.664 169.21 848.705 169.354 850.137 170.468C851.568 171.58 853.775 173.203 854.235 173.092C855.213 172.839 854.363 170.38 852.408 167.465C850.459 164.545 843.085 152.736 841.729 152.278C841.032 152.045 837.556 158.978 837.34 160.397C838.031 161.268 839.812 162.623 839.984 166.566C840.167 170.506 843.336 193.779 845.159 208.444L845.257 209.262C834.967 200.645 825.273 192.787 821.285 189.601C820.595 189.049 819.836 188.421 819.017 187.747C818.367 183.824 817.768 180.087 817.356 176.999C817.082 174.861 816.981 172.712 817.056 170.565C817.089 169.483 818.136 169.63 819.569 170.745C821.008 171.856 823.207 173.479 823.667 173.363C824.645 173.115 823.795 170.656 821.837 167.736C819.891 164.816 812.203 152.736 810.84 152.278C810.151 152.045 806.512 159.531 806.297 160.938C806.995 161.815 808.773 163.17 808.948 167.113C809.017 168.787 809.599 173.862 810.373 180.266C803.551 174.186 796.871 167.819 796.396 166.526C796.228 165.887 797.671 166.28 800.34 166.604C802.999 166.923 805.493 167.524 805.067 166.536C804.867 166.077 803.851 164.932 801.304 163.747C798.756 162.565 792.225 159.5 787.368 157.337C782.5 155.173 780.089 153.352 779.085 153.871C778.588 154.127 779.031 161.549 779.316 162.468C780.539 162.552 782.8 163.233 784.239 164.677C785.692 166.12 794.999 175.905 802.356 182.523C805.441 185.291 808.547 188.046 811.673 190.788C812.433 196.884 813.229 203.182 813.887 208.444C815.38 220.448 820.748 252.106 820.8 262.394C816.837 265.184 808.733 269.073 800.395 269.154C792.057 269.232 787.485 267.586 784.125 262.937C783.088 261.496 782.124 260.047 781.167 258.736C778.896 255.618 773.827 253.868 768.94 254.726L768.195 254.876L766.865 255.355C763.556 256.654 760.135 258.832 756.789 262.21C751.004 268.07 747.309 274.426 743.029 279.932C738.569 285.665 735.147 289.512 727.324 288.592C721.817 287.944 717.635 284.402 715.057 280.043C722.299 276.285 727.557 271.383 731.404 264.588C736.411 255.758 738.196 245.803 737.751 234.609C737.324 224.074 730.921 199.289 729.231 189.791C727.543 180.287 725.119 172.487 725.4 170.458C725.663 168.501 729.819 173.11 731.947 173.454C733.036 173.272 732.452 170.332 730.384 167.847C728.983 166.158 724.541 158.475 721.635 154.77C720.268 153.017 719.94 152.002 719.304 151.794C718.676 151.579 713.837 159.331 714.421 160.174C715.853 161.709 716.832 162.441 717.131 165.191C717.437 167.941 720.753 188.129 723.653 202.997C725.837 214.216 730.663 234.594 731.283 249.657C731.488 254.572 730.552 258.1 729.741 260.07C727.66 263.089 724.267 266.442 712.347 272.806C710.507 263.813 712.507 256.507 710.761 255.831C708.793 255.991 708.479 260.181 708.256 265.353C708.147 267.741 708.285 271.048 708.884 274.601C694.244 281.941 674.901 288.623 665.819 292.191C660.491 294.288 662.412 294.777 666.921 293.731C671.432 292.68 696.219 287.805 709.451 282.586L710.875 281.993C711.547 283.743 712.361 285.437 713.363 287C717.813 293.939 724.176 298.059 731.068 297.656C736.864 297.322 741.068 292.67 744.735 287.121C748.441 281.505 754.704 270.838 760.847 266.87C763.207 265.34 765.647 264.13 768.02 263.403C768.02 263.403 772.216 262.352 776.076 264.243C777.46 264.927 778.493 265.9 779.148 266.989C780.671 269.489 782.471 272.669 786.152 275.333C792.639 280.018 803.068 279.051 810.892 276.326C818.703 273.598 822.692 269.344 824.429 264.289C827.395 255.641 826.92 246.78 826.355 238.909C825.701 229.927 823.787 220.747 822.699 211.019C822.348 207.892 821.665 203.542 820.88 198.824C828.499 205.418 836.408 212.111 841.208 215.771C842.861 217.034 844.608 218.437 846.401 219.919C847.832 234.642 849.209 253.066 849.936 260.797C850.656 268.501 850.192 278.185 850.108 279.869C850.02 281.553 851.268 281.264 853.063 277.526C855.465 272.509 856.973 259.353 856.448 250.629C856.133 245.445 855.444 235.995 854.699 227.055C859.9 231.696 864.96 236.425 869.876 241.237C876.369 247.613 882.333 255.195 884.419 259.926C886.501 264.661 886.731 266.064 887.136 266.908C887.541 267.752 889.336 264.297 889.051 258.885M779.4 439.013C778.813 437.754 777.017 436.831 774.869 436.831C772.721 436.831 770.929 437.754 770.339 439.013H750C749.789 437.315 750.004 435.602 750.635 433.963L792.625 433.944L793.795 435.422C794.862 436.758 796.189 437.968 797.731 439.012L779.4 439.013ZM807.197 424.378H756.737C760.616 422.278 762.649 419.216 762.104 416.117C761.756 414.164 759.176 412.705 756.031 412.507H754.451C750.624 412.787 747.849 414.856 748.253 417.127L748.407 418.001L748.593 419.345C748.805 421.037 748.592 422.744 747.967 424.378H374.981C380.52 430.422 390.619 434.128 401.523 434.122L741.877 433.965C737.984 436.067 735.944 439.135 736.493 442.24C736.896 444.512 740.32 446.13 744.147 445.85C747.969 445.57 750.744 443.501 750.345 441.226L750.191 440.356H770.193C770.545 441.82 772.495 442.943 774.869 442.943C777.244 442.943 779.195 441.82 779.549 440.355H799.896V440.32C804.145 442.58 809.544 443.88 815.256 443.88C820.629 443.88 824.983 441.08 824.983 437.625V435.817C824.983 429.501 817.023 424.377 807.199 424.377" fill="white"/>
</g>
<defs>
<clipPath id="clip0_828_944">
<rect width="1200" height="600" rx="8" fill="white"/>
</clipPath>
</defs>
</svg>
