<svg width="1200" height="600" viewBox="0 0 1200 600" fill="none" xmlns="http://www.w3.org/2000/svg">
<g clip-path="url(#clip0_681_475)">
<path d="M0 0H1200V600H0V0Z" fill="#B22234"/>
<path d="M0 69.2305H1200ZM1200 161.538H0ZM0 253.846H1200ZM1200 346.154H0ZM0 438.461H1200ZM1200 530.769H0Z" fill="black"/>
<path d="M0 69.2305H1200M1200 161.538H0M0 253.846H1200M1200 346.154H0M0 438.461H1200M1200 530.769H0" stroke="white" stroke-width="50"/>
<path d="M0 0H480V323.077H0V0Z" fill="#3C3B6E"/>
<path d="M40 13.8457L51.4225 47.2429L21.5181 26.6023H58.4821L28.5775 47.2429L40 13.8457Z" fill="white"/>
<path d="M40 78.4609L51.4225 111.858L21.5181 91.2176H58.4821L28.5775 111.858L40 78.4609Z" fill="white"/>
<path d="M40 143.076L51.4225 176.473L21.5181 155.833H58.4821L28.5775 176.473L40 143.076Z" fill="white"/>
<path d="M40 207.691L51.4225 241.089L21.5181 220.448H58.4821L28.5775 241.089L40 207.691Z" fill="white"/>
<path d="M40 272.308L51.4225 305.705L21.5181 285.064H58.4821L28.5775 305.705L40 272.308Z" fill="white"/>
<path d="M80 46.1533L91.4225 79.5506L61.5181 58.9099H98.4821L68.5775 79.5506L80 46.1533Z" fill="white"/>
<path d="M80 110.769L91.4225 144.166L61.5181 123.525H98.4821L68.5775 144.166L80 110.769Z" fill="white"/>
<path d="M80 175.384L91.4225 208.781L61.5181 188.14H98.4821L68.5775 208.781L80 175.384Z" fill="white"/>
<path d="M80 239.999L91.4225 273.396L61.5181 252.756H98.4821L68.5775 273.396L80 239.999Z" fill="white"/>
<path d="M120 13.8457L131.423 47.2429L101.518 26.6023H138.482L108.578 47.2429L120 13.8457Z" fill="white"/>
<path d="M120 78.4609L131.423 111.858L101.518 91.2176H138.482L108.578 111.858L120 78.4609Z" fill="white"/>
<path d="M120 143.076L131.423 176.473L101.518 155.833H138.482L108.578 176.473L120 143.076Z" fill="white"/>
<path d="M120 207.691L131.423 241.089L101.518 220.448H138.482L108.578 241.089L120 207.691Z" fill="white"/>
<path d="M120 272.308L131.423 305.705L101.518 285.064H138.482L108.578 305.705L120 272.308Z" fill="white"/>
<path d="M160 46.1533L171.423 79.5506L141.518 58.9099H178.482L148.578 79.5506L160 46.1533Z" fill="white"/>
<path d="M160 110.769L171.423 144.166L141.518 123.525H178.482L148.578 144.166L160 110.769Z" fill="white"/>
<path d="M160 175.384L171.423 208.781L141.518 188.14H178.482L148.578 208.781L160 175.384Z" fill="white"/>
<path d="M160 239.999L171.423 273.396L141.518 252.756H178.482L148.578 273.396L160 239.999Z" fill="white"/>
<path d="M200 13.8457L211.423 47.2429L181.518 26.6023H218.482L188.578 47.2429L200 13.8457Z" fill="white"/>
<path d="M200 78.4609L211.423 111.858L181.518 91.2176H218.482L188.578 111.858L200 78.4609Z" fill="white"/>
<path d="M200 143.076L211.423 176.473L181.518 155.833H218.482L188.578 176.473L200 143.076Z" fill="white"/>
<path d="M200 207.691L211.423 241.089L181.518 220.448H218.482L188.578 241.089L200 207.691Z" fill="white"/>
<path d="M200 272.308L211.423 305.705L181.518 285.064H218.482L188.578 305.705L200 272.308Z" fill="white"/>
<path d="M240 46.1533L251.423 79.5506L221.518 58.9099H258.482L228.578 79.5506L240 46.1533Z" fill="white"/>
<path d="M240 110.769L251.423 144.166L221.518 123.525H258.482L228.578 144.166L240 110.769Z" fill="white"/>
<path d="M240 175.384L251.423 208.781L221.518 188.14H258.482L228.578 208.781L240 175.384Z" fill="white"/>
<path d="M240 239.999L251.423 273.396L221.518 252.756H258.482L228.578 273.396L240 239.999Z" fill="white"/>
<path d="M280 13.8457L291.423 47.2429L261.518 26.6023H298.482L268.578 47.2429L280 13.8457Z" fill="white"/>
<path d="M280 78.4609L291.423 111.858L261.518 91.2176H298.482L268.578 111.858L280 78.4609Z" fill="white"/>
<path d="M280 143.076L291.423 176.473L261.518 155.833H298.482L268.578 176.473L280 143.076Z" fill="white"/>
<path d="M280 207.691L291.423 241.089L261.518 220.448H298.482L268.578 241.089L280 207.691Z" fill="white"/>
<path d="M280 272.308L291.423 305.705L261.518 285.064H298.482L268.578 305.705L280 272.308Z" fill="white"/>
<path d="M320 46.1533L331.423 79.5506L301.518 58.9099H338.482L308.578 79.5506L320 46.1533Z" fill="white"/>
<path d="M320 110.769L331.423 144.166L301.518 123.525H338.482L308.578 144.166L320 110.769Z" fill="white"/>
<path d="M320 175.384L331.423 208.781L301.518 188.14H338.482L308.578 208.781L320 175.384Z" fill="white"/>
<path d="M320 239.999L331.423 273.396L301.518 252.756H338.482L308.578 273.396L320 239.999Z" fill="white"/>
<path d="M360 13.8457L371.423 47.2429L341.518 26.6023H378.482L348.578 47.2429L360 13.8457Z" fill="white"/>
<path d="M360 78.4609L371.423 111.858L341.518 91.2176H378.482L348.578 111.858L360 78.4609Z" fill="white"/>
<path d="M360 143.076L371.423 176.473L341.518 155.833H378.482L348.578 176.473L360 143.076Z" fill="white"/>
<path d="M360 207.691L371.423 241.089L341.518 220.448H378.482L348.578 241.089L360 207.691Z" fill="white"/>
<path d="M360 272.308L371.423 305.705L341.518 285.064H378.482L348.578 305.705L360 272.308Z" fill="white"/>
<path d="M400 46.1533L411.423 79.5506L381.518 58.9099H418.482L388.578 79.5506L400 46.1533Z" fill="white"/>
<path d="M400 110.769L411.423 144.166L381.518 123.525H418.482L388.578 144.166L400 110.769Z" fill="white"/>
<path d="M400 175.384L411.423 208.781L381.518 188.14H418.482L388.578 208.781L400 175.384Z" fill="white"/>
<path d="M400 239.999L411.423 273.396L381.518 252.756H418.482L388.578 273.396L400 239.999Z" fill="white"/>
<path d="M440 13.8457L451.423 47.2429L421.518 26.6023H458.482L428.578 47.2429L440 13.8457Z" fill="white"/>
<path d="M440 78.4609L451.423 111.858L421.518 91.2176H458.482L428.578 111.858L440 78.4609Z" fill="white"/>
<path d="M440 143.076L451.423 176.473L421.518 155.833H458.482L428.578 176.473L440 143.076Z" fill="white"/>
<path d="M440 207.691L451.423 241.089L421.518 220.448H458.482L428.578 241.089L440 207.691Z" fill="white"/>
<path d="M440 272.308L451.423 305.705L421.518 285.064H458.482L428.578 305.705L440 272.308Z" fill="white"/>
</g>
<defs>
<clipPath id="clip0_681_475">
<rect width="1200" height="600" fill="white"/>
</clipPath>
</defs>
</svg>
